<svg width="12" height="19" viewBox="0 0 12 19" fill="none" xmlns="http://www.w3.org/2000/svg">
<g clip-path="url(#clip0_7_129)">
<path d="M5.5334 13.4771C6.33589 13.4771 6.82112 13.0479 6.95175 12.334C6.95642 12.2641 6.96575 12.1707 6.97508 12.1055C7.08706 11.1257 7.49296 10.6918 9.04195 9.7213C10.7449 8.65754 11.6547 7.43514 11.6547 5.66687C11.6547 2.77418 9.2939 1.02924 6.00463 1.02924C3.56918 1.02924 1.61894 2.04168 0.807119 3.67464C0.583168 4.12254 0.475859 4.57978 0.475859 5.00902C0.471194 5.84883 1.02174 6.4227 1.9222 6.4227C2.60806 6.4227 3.15393 6.06812 3.41054 5.45692C3.83512 4.17854 4.70292 3.66998 5.85533 3.66998C7.23636 3.66998 8.30478 4.4818 8.30478 5.70886C8.30478 6.87993 7.67492 7.47713 6.25658 8.3776C4.9222 9.23608 4.01708 10.1925 4.01708 11.6389C4.01708 11.7509 4.01708 11.8675 4.01708 11.9841C4.01708 12.8752 4.60494 13.4771 5.5334 13.4771ZM5.56606 18.8333C6.61116 18.8333 7.4603 18.0262 7.4603 17.0137C7.4603 16.0059 6.61116 15.2034 5.56606 15.2034C4.52562 15.2034 3.68114 16.0059 3.68114 17.0137C3.68114 18.0262 4.52562 18.8333 5.56606 18.8333Z" fill="#292524"/>
</g>
<defs>
<clipPath id="clip0_7_129">
<rect width="11.5242" height="18" fill="white" transform="translate(0.475845 0.833313)"/>
</clipPath>
</defs>
</svg>
